<?xml version="1.0" encoding="utf-8"?>
<!-- Generator: Adobe Illustrator 16.0.0, SVG Export Plug-In . SVG Version: 6.00 Build 0)  -->
<!DOCTYPE svg PUBLIC "-//W3C//DTD SVG 1.1//EN" "http://www.w3.org/Graphics/SVG/1.1/DTD/svg11.dtd">
<svg version="1.1" id="Layer_1" xmlns="http://www.w3.org/2000/svg" xmlns:xlink="http://www.w3.org/1999/xlink" x="0px" y="0px"
	 width="110px" height="67px" viewBox="0 0 110 67" enable-background="new 0 0 110 67" xml:space="preserve">
<g>
	<g>
		<path fill="#FFFFFF" d="M59.164,40.922c-1.226-0.464-2.498-1.584-2.701-4.076c-0.165-2.936-0.124-9.097-0.703-9.138
			c-0.95-0.041-2.977,6.079-3.514,7.938c-1.364,4.672-2.15,5.21-3.762,4.879c-1.117-0.248-2.439-3.225-3.183-7.442
			c-0.084-0.481-0.16-0.98-0.23-1.491c-2.974,5.925-12.515,12.462-17.55,12.2C13.008,43.047,16.316,7.325,27.396,6.829
			c6.036-0.248,6.285,8.559,4.961,12.031c-1.034,2.646-3.556,6.037-5.995,4.878c-1.116-0.537-0.827-1.902-0.496-2.397
			c1.653-0.786,4.176-6.202,4.424-7.979c0.248-2.274,0.207-4.052-1.778-3.804c-4.672,0.62-6.202,11.081-6.698,14.967
			c-0.456,3.845,0.579,13.562,5.416,15.546c4.961,2.107,14.388-7.153,16.951-11.866c0.134-0.257,0.314-0.405,0.506-0.465
			c-0.589-8.842,0.522-19.15,3.01-18.844c3.928,0.497,4.341,4.755,4.176,8.683c-0.248,6.036-1.447,8.062-4.052,10.459
			c0.331,4.011,0.869,7.277,1.365,7.318c0.744,0.083,0.744-1.984,1.281-4.01c0.703-2.729,3.638-8.641,5.499-8.724
			c3.225-0.166,3.35,5.829,3.515,10.377c0.033,2.414,0.312,4.609,0.944,5.31c-0.186,0.446-0.383,0.886-0.594,1.321
			c1.619-3.356,2.521-7.057,2.521-10.946c0-15.245-13.785-27.604-30.788-27.604c-17.003,0-30.788,12.358-30.788,27.604
			c0,5.618,1.877,10.84,5.092,15.201c-0.422,5.037-1.638,12.132-5.092,15.587c0,0,10.556-1.481,17.706-5.799
			c3.971,1.674,8.404,2.613,13.082,2.613c12.659,0,23.53-6.852,28.26-16.643C59.616,40.076,59.396,40.502,59.164,40.922z"/>
		<path fill="#FFFFFF" d="M48.483,13.526c-1.075,0.289-1.199,6.078-0.868,11.618C51.088,21.217,49.518,13.236,48.483,13.526z"/>
	</g>
	<g>
		<path fill="#FFFFFF" d="M64.607,33.537c-0.826,2.108-2.811,4.921-3.68,5.003c-0.188,0.016-0.354-0.067-0.502-0.23
			c-0.371,0.894-0.794,1.765-1.262,2.612c0.277,0.105,0.553,0.177,0.812,0.223c0.332,0.041,0.662,0.083,0.993,0
			c2.397-0.496,5.044-4.465,5.374-6.863C66.551,32.669,65.146,32.214,64.607,33.537z"/>
		<path fill="#FFFFFF" d="M78.004,41.145c-0.33,0.083-0.661,0.041-0.992,0c-1.405-0.248-2.563-1.033-3.266-3.845
			c-2.605,4.135-5.375,4.424-6.905,2.853c-4.878-5.043-5.003-17.53,4.218-16.62c1.86,0.165,3.349,0.413,2.356,1.488
			c0.786,0.083,1.778,0.373,1.984,1.365c0.331,0.455,0.455,3.804,0.786,6.863c0.289,2.811,0.785,5.375,1.777,5.292
			c0.869-0.082,2.854-2.895,3.68-5.003c0.538-1.323,1.943-0.868,1.736,0.744C83.049,36.68,80.402,40.648,78.004,41.145z
			 M71.43,25.641c-5.953,0.372-4.754,8.765-3.555,10.791c1.158,1.984,2.191,0.992,3.308-1.695
			C71.596,33.703,73.291,24.979,71.43,25.641z"/>
		<path fill="#FFFFFF" d="M80.816,31.884c-0.248-5.086-0.248-9.013-0.289-12.321c-1.695,0.496-3.391,1.034-5.086,1.654
			c-1.654,0.579-2.811-0.166-2.977-1.365c-0.166-1.447,1.984-2.439,3.308-2.729l4.714-0.909c0-0.745-0.042-1.447-0.084-2.15
			c0.125-2.646,1.447-2.191,2.191-1.86c1.117,0.537,1.695,2.191,1.777,3.391c3.02-0.414,6.12-0.662,9.262-0.497
			c1.323,0.124,2.895,0.786,2.729,1.489c-0.123,0.29-0.041,0.951-0.991,0.91c-3.64-0.165-7.401,0.289-11.081,1.117
			c-0.165,3.224-0.372,6.987-0.413,11.039c0,0,0.083,1.323,0.041,2.688c0,1.861-0.372,7.277,2.605,6.615
			c1.198-0.248,1.818-2.273,2.397-5.416c0.248-1.405,2.025-0.868,1.736,0.744c-0.33,2.274-0.867,6.822-4.217,7.359
			C80.816,42.51,81.023,36.349,80.816,31.884z"/>
		<path fill="#FFFFFF" d="M88.176,31.884c-0.248-5.086-0.248-9.013-0.289-12.321c-1.695,0.496-3.391,1.034-5.086,1.654
			c-1.653,0.579-2.811-0.166-2.977-1.365c-0.166-1.447,1.984-2.439,3.308-2.729l4.714-0.909c0-0.745-0.041-1.447-0.084-2.15
			c0.125-2.646,1.447-2.191,2.191-1.86c1.117,0.537,1.695,2.191,1.777,3.391c3.02-0.414,6.12-0.662,9.262-0.497
			c1.323,0.124,2.895,0.786,2.729,1.489c-0.124,0.29-0.041,0.951-0.992,0.91c-3.639-0.165-7.401,0.289-11.081,1.117
			c-0.165,3.224-0.372,6.987-0.413,11.039c0,0,0.083,1.323,0.041,2.688c0,1.861-0.372,7.277,2.604,6.615
			c1.199-0.248,1.819-2.273,2.398-5.416c0.248-1.405,2.025-0.868,1.736,0.744c-0.331,2.274-0.867,6.822-4.217,7.359
			C88.176,42.51,88.383,36.349,88.176,31.884z"/>
		<path fill="#FFFFFF" d="M98.347,28.038c1.157,4.92,3.226,9.593,4.093,8.972c0.496-0.371,0.58-2.355-0.248-8.227
			c-0.164-1.034-0.537-4.052,0.621-4.919c2.729-1.82,3.928,2.811,4.837,4.836c1.901,4.3,1.778,11.164,1.778,17.366
			c0,5.085-0.827,10.831-3.268,15.38c-1.115,2.107-2.936,3.638-4.961,4.299c-1.57,0.539-3.391,0.455-5.292-0.412
			c-1.157-0.539-1.24-1.654-0.786-2.398c0.58-0.951,1.82-0.372,3.557-0.083c4.879,0.827,7.524-7.483,7.607-16.083
			c0.082-6.945-0.414-13.768-1.736-16.745c0.33,2.48,0.496,4.382,0.455,6.946c-0.041,2.605-0.787,3.887-2.026,4.217
			c-0.786,0.207-1.943-0.248-2.771-1.24c-2.356-2.852-4.795-9.178-5.498-11.989c-0.248-0.993-0.372-3.349,0.371-3.845
			C98.016,22.126,98.182,27.377,98.347,28.038z"/>
	</g>
</g>
</svg>
